HIERARCHY
ROOT pelvis
{
	OFFSET 0.003123 -0.351407 0.012037
	CHANNELS 6 Xposition Yposition Zposition Zrotation Yrotation Xrotation 
	JOINT left_hip
	{
		OFFSET 0.058189 -0.092763 -0.026001
		CHANNELS 3 Zrotation Yrotation Xrotation
		JOINT left_knee
		{
			OFFSET 0.054695 -0.378753 -0.009396
			CHANNELS 3 Zrotation Yrotation Xrotation
			JOINT left_ankle
			{
				OFFSET -0.043453 -0.403059 -0.031876
				CHANNELS 3 Zrotation Yrotation Xrotation
				JOINT left_foot
				{
					OFFSET 0.047257 -0.057997 0.118216
					CHANNELS 3 Zrotation Yrotation Xrotation
					End Site
					{
						OFFSET 0.000000 0.000000 0.000000
					}
				}
			}
		}
	}
	JOINT right_hip
	{
		OFFSET -0.063267 -0.103908 -0.021250
		CHANNELS 3 Zrotation Yrotation Xrotation
		JOINT right_knee
		{
			OFFSET -0.044210 -0.362380 -0.016824
			CHANNELS 3 Zrotation Yrotation Xrotation
			JOINT right_ankle
			{
				OFFSET 0.015417 -0.410728 -0.020192
				CHANNELS 3 Zrotation Yrotation Xrotation
				JOINT right_foot
				{
					OFFSET -0.038812 -0.058328 0.119049
					CHANNELS 3 Zrotation Yrotation Xrotation
					End Site
					{
						OFFSET 0.000000 0.000000 0.000000
					}
				}
			}
		}
	}
	JOINT spine_1
	{
		OFFSET -0.002763 0.109891 -0.027618
		CHANNELS 3 Zrotation Yrotation Xrotation
		JOINT spine_2
		{
			OFFSET 0.009448 0.131853 -0.005940
			CHANNELS 3 Zrotation Yrotation Xrotation
			JOINT spine_3
			{
				OFFSET -0.011330 0.052235 0.028447
				CHANNELS 3 Zrotation Yrotation Xrotation
				JOINT neck
				{
					OFFSET -0.012164 0.165167 -0.031615
					CHANNELS 3 Zrotation Yrotation Xrotation
					JOINT head
					{
						OFFSET 0.024783 0.160452 0.020737
						CHANNELS 3 Zrotation Yrotation Xrotation
						End Site
						{
							OFFSET 0.000000 0.000000 0.000000
						}
					}
				}
				JOINT left_collar
				{
					OFFSET 0.046364 0.084944 -0.007220
					CHANNELS 3 Zrotation Yrotation Xrotation
					JOINT left_shoulder
					{
						OFFSET 0.119239 0.057728 -0.015461
						CHANNELS 3 Zrotation Yrotation Xrotation
						JOINT left_elbow
						{
							OFFSET 0.254123 -0.072151 -0.042459
							CHANNELS 3 Zrotation Yrotation Xrotation
							JOINT left_wrist
							{
								OFFSET 0.251987 0.023221 -0.002472
								CHANNELS 3 Zrotation Yrotation Xrotation
								JOINT left_index_1
								{
									OFFSET 0.101902 -0.008688 0.019351
									CHANNELS 3 Zrotation Yrotation Xrotation
									JOINT left_index_2
									{
										OFFSET 0.030149 -0.011154 0.001151
										CHANNELS 3 Zrotation Yrotation Xrotation
										JOINT left_index_3
										{
											OFFSET 0.006504 -0.021577 -0.002433
											CHANNELS 3 Zrotation Yrotation Xrotation
											End Site
											{
												OFFSET 0.000000 0.000000 0.000000
											}
										}
									}
								}
								JOINT left_middle_1
								{
									OFFSET 0.109398 -0.006328 -0.003981
									CHANNELS 3 Zrotation Yrotation Xrotation
									JOINT left_middle_2
									{
										OFFSET 0.026472 -0.015218 -0.004641
										CHANNELS 3 Zrotation Yrotation Xrotation
										JOINT left_middle_3
										{
											OFFSET 0.005022 -0.023347 -0.001911
											CHANNELS 3 Zrotation Yrotation Xrotation
											End Site
											{
												OFFSET 0.000000 0.000000 0.000000
											}
										}
									}
								}
								JOINT left_pinky_1
								{
									OFFSET 0.084047 -0.014539 -0.043750
									CHANNELS 3 Zrotation Yrotation Xrotation
									JOINT left_pinky_2
									{
										OFFSET 0.012124 -0.014448 -0.005375
										CHANNELS 3 Zrotation Yrotation Xrotation
										JOINT left_pinky_3
										{
											OFFSET 0.003798 -0.018853 0.000167
											CHANNELS 3 Zrotation Yrotation Xrotation
											End Site
											{
												OFFSET 0.000000 0.000000 0.000000
											}
										}
									}
								}
								JOINT left_ring_1
								{
									OFFSET 0.097444 -0.009268 -0.027345
									CHANNELS 3 Zrotation Yrotation Xrotation
									JOINT left_ring_2
									{
										OFFSET 0.023561 -0.016057 -0.001895
										CHANNELS 3 Zrotation Yrotation Xrotation
										JOINT left_ring_3
										{
											OFFSET 0.004257 -0.023548 0.000814
											CHANNELS 3 Zrotation Yrotation Xrotation
											End Site
											{
												OFFSET 0.000000 0.000000 0.000000
											}
										}
									}
								}
								JOINT left_thumb_1
								{
									OFFSET 0.040636 -0.017977 0.025611
									CHANNELS 3 Zrotation Yrotation Xrotation
									JOINT left_thumb_2
									{
										OFFSET 0.021637 -0.017639 0.011623
										CHANNELS 3 Zrotation Yrotation Xrotation
										JOINT left_thumb_3
										{
											OFFSET 0.024002 -0.008356 0.006548
											CHANNELS 3 Zrotation Yrotation Xrotation
											End Site
											{
												OFFSET 0.000000 0.000000 0.000000
											}
										}
									}
								}
							}
						}
					}
				}
				JOINT right_collar
				{
					OFFSET -0.047695 0.084339 -0.013400
					CHANNELS 3 Zrotation Yrotation Xrotation
					JOINT right_shoulder
					{
						OFFSET -0.102578 0.053524 -0.012669
						CHANNELS 3 Zrotation Yrotation Xrotation
						JOINT right_elbow
						{
							OFFSET -0.271150 -0.036492 -0.026467
							CHANNELS 3 Zrotation Yrotation Xrotation
							JOINT right_wrist
							{
								OFFSET -0.249267 -0.004533 -0.015325
								CHANNELS 3 Zrotation Yrotation Xrotation
								JOINT right_index_1
								{
									OFFSET -0.099881 -0.011783 0.019600
									CHANNELS 3 Zrotation Yrotation Xrotation
									JOINT right_index_2
									{
										OFFSET -0.030148 -0.011154 0.001151
										CHANNELS 3 Zrotation Yrotation Xrotation
										JOINT right_index_3
										{
											OFFSET -0.006505 -0.021577 -0.002432
											CHANNELS 3 Zrotation Yrotation Xrotation
											End Site
											{
												OFFSET 0.000000 0.000000 0.000000
											}
										}
									}
								}
								JOINT right_middle_1
								{
									OFFSET -0.107376 -0.009422 -0.003734
									CHANNELS 3 Zrotation Yrotation Xrotation
									JOINT right_middle_2
									{
										OFFSET -0.026472 -0.015218 -0.004641
										CHANNELS 3 Zrotation Yrotation Xrotation
										JOINT right_middle_3
										{
											OFFSET -0.005022 -0.023347 -0.001911
											CHANNELS 3 Zrotation Yrotation Xrotation
											End Site
											{
												OFFSET 0.000000 0.000000 0.000000
											}
										}
									}
								}
								JOINT right_pinky_1
								{
									OFFSET -0.082027 -0.017634 -0.043503
									CHANNELS 3 Zrotation Yrotation Xrotation
									JOINT right_pinky_2
									{
										OFFSET -0.012123 -0.014448 -0.005374
										CHANNELS 3 Zrotation Yrotation Xrotation
										JOINT right_pinky_3
										{
											OFFSET -0.003798 -0.018852 0.000167
											CHANNELS 3 Zrotation Yrotation Xrotation
											End Site
											{
												OFFSET 0.000000 0.000000 0.000000
											}
										}
									}
								}
								JOINT right_ring_1
								{
									OFFSET -0.095423 -0.012362 -0.027099
									CHANNELS 3 Zrotation Yrotation Xrotation
									JOINT right_ring_2
									{
										OFFSET -0.023561 -0.016057 -0.001895
										CHANNELS 3 Zrotation Yrotation Xrotation
										JOINT right_ring_3
										{
											OFFSET -0.004257 -0.023548 0.000816
											CHANNELS 3 Zrotation Yrotation Xrotation
											End Site
											{
												OFFSET 0.000000 0.000000 0.000000
											}
										}
									}
								}
								JOINT right_thumb_1
								{
									OFFSET -0.038613 -0.021074 0.025861
									CHANNELS 3 Zrotation Yrotation Xrotation
									JOINT right_thumb_2
									{
										OFFSET -0.021636 -0.017639 0.011623
										CHANNELS 3 Zrotation Yrotation Xrotation
										JOINT right_thumb_3
										{
											OFFSET -0.024004 -0.008353 0.006547
											CHANNELS 3 Zrotation Yrotation Xrotation
											End Site
											{
												OFFSET 0.000000 0.000000 0.000000
											}
										}
									}
								}
							}
						}
					}
				}
			}
		}
	}
}
MOTION
Frames: 4
Frame Time: 0.050000
0.062214 0.852779 -0.004692 -1.036713 2.340132 -9.364601 25.433254 -0.194330 -4.640676 2.070155 -2.971141 20.578652 -0.340508 2.456405 3.880302 0.000000 0.000000 0.000000 -21.593617 0.497310 0.901404 0.229824 0.991157 30.087222 -0.781341 3.093526 -6.738095 0.000000 0.000000 0.000000 -1.357461 -1.002400 15.642292 -9.065724 1.264074 -12.797383 6.031425 3.528834 19.339373 1.901983 0.061371 -2.023142 0.000000 0.000000 0.000000 9.115680 4.618726 -0.514573 -61.899739 -35.062687 -2.545862 167.157666 -62.784394 -141.005551 19.943320 -13.144850 -13.886935 -2.563350 -4.474846 -1.039125 5.286468 -2.646668 -11.853566 0.000000 0.000000 0.000000 -2.553522 -15.066608 -7.670073 -8.699111 -1.814346 -8.714554 0.000000 0.000000 0.000000 25.209561 -16.582845 -19.348635 2.603033 0.266292 0.893197 0.000000 0.000000 0.000000 4.371154 -12.708356 -8.621995 1.172147 -1.809579 -10.873356 0.000000 0.000000 0.000000 24.803311 11.622138 -3.978238 -18.532328 -9.587570 2.736709 0.000000 0.000000 0.000000 -18.187473 7.114385 3.328514 50.112884 60.540948 18.457856 -97.752837 34.564240 -32.512893 -11.931549 3.848601 -33.799715 2.870218 0.005825 0.125854 3.731822 6.168452 -18.236347 0.000000 0.000000 0.000000 8.055443 13.902683 -6.703826 1.186320 5.427228 -20.019702 0.000000 0.000000 0.000000 -12.430598 18.412623 -26.832293 -14.090661 -0.285164 1.383653 0.000000 0.000000 0.000000 5.728995 15.286390 -8.973691 -13.057463 1.662785 -17.137489 0.000000 0.000000 0.000000 -30.206677 -13.962390 -5.257347 24.053677 7.977037 4.495158 0.000000 0.000000 0.000000 
0.055618 0.854069 -0.002052 -0.966142 -0.451632 -8.605422 25.437041 0.035542 -3.703080 2.978168 -3.093868 20.441526 0.787280 3.162093 2.101380 0.000000 0.000000 0.000000 -20.969468 0.686227 -0.313741 0.950486 0.981439 30.140572 -2.608345 1.210522 -9.596984 0.000000 0.000000 0.000000 -1.054440 -1.057177 16.034223 -8.845580 0.872731 -13.336207 6.294160 3.582674 19.107187 1.838706 0.137807 -2.519438 0.000000 0.000000 0.000000 10.006108 3.369712 -0.046063 -62.729992 -38.027299 -0.833406 156.458295 -64.981524 -126.811703 20.555561 -13.771458 -17.251114 -3.900879 -4.759200 -0.889035 0.601700 -2.589032 -12.027136 0.000000 0.000000 0.000000 -6.075690 -13.903698 -6.905658 -8.329392 -2.065964 -9.568838 0.000000 0.000000 0.000000 20.325819 -16.013367 -19.486357 2.202392 0.332453 1.130725 0.000000 0.000000 0.000000 0.358192 -12.881846 -8.285851 -1.036700 -2.185162 -10.426973 0.000000 0.000000 0.000000 23.751742 10.145579 -5.389369 -19.053902 -8.943540 2.945844 0.000000 0.000000 0.000000 -17.379106 6.557211 3.379301 56.087806 58.290357 19.697870 -104.638267 38.538782 -42.086823 -10.885547 3.881434 -32.769615 5.224639 0.787188 0.104361 -2.873534 6.011055 -24.707357 0.000000 0.000000 0.000000 9.547417 16.951278 -7.740853 -1.189897 5.286373 -21.780629 0.000000 0.000000 0.000000 -11.805009 20.737063 -30.097124 -13.585518 -0.217352 0.720850 0.000000 0.000000 0.000000 8.272574 19.298333 -10.497429 -17.867212 0.595475 -17.578384 0.000000 0.000000 0.000000 -29.565077 -14.105228 -4.807500 23.226416 8.901136 4.070928 0.000000 0.000000 0.000000 
0.050672 0.856003 0.001907 -0.970208 -2.212196 -8.608915 25.590437 0.168627 -2.703507 3.690523 -3.349873 21.273287 1.393000 2.863591 0.086622 0.000000 0.000000 0.000000 -20.931868 0.838667 -0.400805 1.815333 0.887368 31.024222 -3.406376 1.638672 -12.221258 0.000000 0.000000 0.000000 -0.297513 -1.147603 16.444569 -8.095539 0.531942 -13.119534 6.182733 1.880441 19.688207 0.216876 0.513647 -3.604931 0.000000 0.000000 0.000000 10.216805 3.271237 -0.248652 -63.418065 -41.735666 1.633249 144.462543 -65.031546 -110.544988 20.891471 -12.289460 -18.368356 -3.624861 -2.561386 -0.391513 -0.974652 -2.467875 -11.622826 0.000000 0.000000 0.000000 -7.284648 -12.360888 -6.180428 -8.227512 -3.308392 -14.021787 0.000000 0.000000 0.000000 20.567265 -16.505034 -20.774361 3.098520 -0.552609 -2.938456 0.000000 0.000000 0.000000 1.524232 -12.928678 -8.494455 -4.818781 -4.011401 -14.380113 0.000000 0.000000 0.000000 26.170935 11.774605 -5.126404 -20.344085 -8.911730 3.363550 0.000000 0.000000 0.000000 -18.716587 5.372347 3.349966 63.188480 57.914803 21.882685 -110.847841 41.780314 -51.578888 -11.539201 4.112724 -33.588156 6.093699 -0.498070 0.363699 3.095896 6.760927 -23.194327 0.000000 0.000000 0.000000 13.683788 16.217371 -6.895278 1.121223 5.212507 -20.043396 0.000000 0.000000 0.000000 -10.079469 21.132900 -30.156308 -11.902771 -0.536571 2.242299 0.000000 0.000000 0.000000 8.537740 19.152246 -10.293684 -12.025770 1.562088 -15.537884 0.000000 0.000000 0.000000 -26.689190 -10.195442 -7.189746 21.104683 5.706158 4.006148 0.000000 0.000000 0.000000 
0.044783 0.857292 0.001907 -1.147189 -4.008608 -7.759536 26.560525 0.395999 -2.770223 2.973933 -3.268128 22.717083 1.790260 2.143942 -2.034279 0.000000 0.000000 0.000000 -20.930394 0.966720 -1.334980 2.108289 0.936891 30.882073 -3.241006 4.406542 -14.292910 0.000000 0.000000 0.000000 0.452204 -1.090425 14.597999 -6.979524 0.308600 -11.905197 5.829205 0.915363 19.348695 -0.213333 0.406617 -2.607357 0.000000 0.000000 0.000000 11.200540 1.689113 0.246780 -63.462356 -45.992613 4.077860 130.335702 -63.807586 -91.893700 21.088286 -11.625517 -19.566781 -3.432834 -0.691697 0.029714 -4.379988 -1.695755 -8.334259 0.000000 0.000000 0.000000 -9.175781 -12.119722 -5.997909 -9.987832 -2.644568 -10.988037 0.000000 0.000000 0.000000 18.113741 -16.677366 -21.480254 3.967863 0.338892 1.041566 0.000000 0.000000 0.000000 -1.761298 -12.634390 -7.902198 -0.379480 -2.737484 -12.814284 0.000000 0.000000 0.000000 27.301232 14.022875 -3.328155 -21.381622 -9.128850 3.649749 0.000000 0.000000 0.000000 -18.439580 5.205581 3.575977 65.698505 56.917264 21.429945 -116.219108 44.316195 -60.224435 -11.725459 5.372995 -33.634805 5.447079 -2.062898 0.567508 16.366462 8.892079 -18.575721 0.000000 0.000000 0.000000 14.142799 16.376508 -6.964919 4.857949 6.668309 -21.595461 0.000000 0.000000 0.000000 -7.402103 22.034580 -30.761516 -10.923713 -0.710910 3.029801 0.000000 0.000000 0.000000 11.821253 20.226841 -9.946145 -14.673651 1.182931 -16.152496 0.000000 0.000000 0.000000 -28.708719 -12.836604 -5.599044 23.345544 6.853880 4.701060 0.000000 0.000000 0.000000 
